#Comment line ignore any data following # character 
#Hierarchical Translation and Rotation (.htr) file 
[Header]	
#Header keywords are followed by a single value 
FileType HTR		#Single word string
DataType HTRS		#Translation followed by rotation and scale data
FileVersion 1		#integer
NumSegments 84		#integer
NumFrames 2		#integer
DataFrameRate 30		#integer, data frame rate in this file
EulerRotationOrder ZYX
CalibrationUnits mm
RotationUnits Degrees
GlobalAxisofGravity Y
BoneLengthAxis Y
ScaleFactor 1.00
[SegmentNames&Hierarchy]
#CHILD	PARENT
MASTER GLOBAL
root MASTER
chest root
L_mid_tent01 root
R_mid_tent01 root
spine01 root
Bip01_Neck chest
L_humerus chest
R_humerus chest
weapon_bone chest
Bip01_Head Bip01_Neck
eye_left_bone Bip01_Head
eye_right_bone Bip01_Head
L_forearm L_humerus
L_front_hand L_forearm
L_weapon_bone L_forearm
L_front_hand01_01 L_front_hand
L_front_hand02_01 L_front_hand
L_front_hand03_01 L_front_hand
L_front_hand01_02 L_front_hand01_01
L_front_hand02_02 L_front_hand02_01
L_front_hand03_02 L_front_hand03_01
R_forearm R_humerus
R_front_hand R_forearm
R_weapon_bone R_forearm
R_front_hand01_01 R_front_hand
R_front_hand02_01 R_front_hand
R_front_hand03_01 R_front_hand
R_front_hand01_02 R_front_hand01_01
R_front_hand02_02 R_front_hand02_01
R_front_hand03_02 R_front_hand03_01
null_rope01_connect L_mid_tent01
Rope1_Seg01 null_rope01_connect
Rope1_Seg02 Rope1_Seg01
Rope1_Seg03 Rope1_Seg02
Rope1_Seg04 Rope1_Seg03
Rope1_Seg05 Rope1_Seg04
Rope1_Seg06 Rope1_Seg05
Rope1_Seg07 Rope1_Seg06
Rope1_Seg09 Rope1_Seg07
L_mid_hand01 Rope1_Seg09
L_mid_hand02 Rope1_Seg09
L_mid_hand03 Rope1_Seg09
null_rope02_connect R_mid_tent01
Rope2_Seg01 null_rope02_connect
Rope2_Seg02 Rope2_Seg01
Rope2_Seg03 Rope2_Seg02
Rope2_Seg04 Rope2_Seg03
Rope2_Seg05 Rope2_Seg04
Rope2_Seg06 Rope2_Seg05
Rope2_Seg07 Rope2_Seg06
Rope2_Seg09 Rope2_Seg07
R_mid_hand01 Rope2_Seg09
R_mid_hand02 Rope2_Seg09
R_mid_hand03 Rope2_Seg09
spine02 spine01
spine03 spine02
pelvis spine03
null_rope03_connect pelvis
null_rope04_connect pelvis
Rope3_Seg01 null_rope03_connect
Rope3_Seg02 Rope3_Seg01
Rope3_Seg03 Rope3_Seg02
Rope3_Seg04 Rope3_Seg03
Rope3_Seg05 Rope3_Seg04
Rope3_Seg06 Rope3_Seg05
Rope3_Seg07 Rope3_Seg06
Rope3_Seg08 Rope3_Seg07
Rope3_Seg09 Rope3_Seg08
R_rear_hand01 Rope3_Seg09
R_rear_hand02 Rope3_Seg09
R_rear_hand03 Rope3_Seg09
Rope4_Seg01 null_rope04_connect
Rope4_Seg02 Rope4_Seg01
Rope4_Seg03 Rope4_Seg02
Rope4_Seg04 Rope4_Seg03
Rope4_Seg05 Rope4_Seg04
Rope4_Seg06 Rope4_Seg05
Rope4_Seg07 Rope4_Seg06
Rope4_Seg08 Rope4_Seg07
Rope4_Seg09 Rope4_Seg08
L_rear_hand01 Rope4_Seg09
L_rear_hand02 Rope4_Seg09
L_rear_hand03 Rope4_Seg09
[BasePosition]
#SegmentName Tx, Ty, Tz, Rx, Ry, Rz, BoneLength
MASTER 0.000000 0.000000 0.000000 -90.000000 0.000000 0.000000 10.000000 
root 0.000000 0.000000 0.000000 0.000000 0.000000 0.000000 10.000000 
chest 0.000000 0.000000 0.000000 0.000000 0.000000 0.000000 10.000000 
L_mid_tent01 0.000000 0.000000 0.000000 0.000000 0.000000 0.000000 10.000000 
R_mid_tent01 0.000000 0.000000 0.000000 0.000000 0.000000 0.000000 10.000000 
spine01 0.000000 0.000000 0.000000 0.000000 0.000000 0.000000 10.000000 
Bip01_Neck 0.000000 0.000000 0.000000 0.000000 0.000000 0.000000 10.000000 
L_humerus 0.000000 0.000000 0.000000 0.000000 0.000000 0.000000 10.000000 
R_humerus 0.000000 0.000000 0.000000 0.000000 0.000000 0.000000 10.000000 
weapon_bone 0.000000 0.000000 0.000000 0.000000 0.000000 0.000000 10.000000 
Bip01_Head 0.000000 0.000000 0.000000 0.000000 0.000000 0.000000 10.000000 
eye_left_bone 0.000000 0.000000 0.000000 0.000000 0.000000 0.000000 10.000000 
eye_right_bone 0.000000 0.000000 0.000000 0.000000 0.000000 0.000000 10.000000 
L_forearm 0.000000 0.000000 0.000000 0.000000 0.000000 0.000000 10.000000 
L_front_hand 0.000000 0.000000 0.000000 0.000000 0.000000 0.000000 10.000000 
L_weapon_bone 0.000000 0.000000 0.000000 0.000000 0.000000 0.000000 10.000000 
L_front_hand01_01 0.000000 0.000000 0.000000 0.000000 0.000000 0.000000 10.000000 
L_front_hand02_01 0.000000 0.000000 0.000000 0.000000 0.000000 0.000000 10.000000 
L_front_hand03_01 0.000000 0.000000 0.000000 0.000000 0.000000 0.000000 10.000000 
L_front_hand01_02 0.000000 0.000000 0.000000 0.000000 0.000000 0.000000 10.000000 
L_front_hand02_02 0.000000 0.000000 0.000000 0.000000 0.000000 0.000000 10.000000 
L_front_hand03_02 0.000000 0.000000 0.000000 0.000000 0.000000 0.000000 10.000000 
R_forearm 0.000000 0.000000 0.000000 0.000000 0.000000 0.000000 10.000000 
R_front_hand 0.000000 0.000000 0.000000 0.000000 0.000000 0.000000 10.000000 
R_weapon_bone 0.000000 0.000000 0.000000 0.000000 0.000000 0.000000 10.000000 
R_front_hand01_01 0.000000 0.000000 0.000000 0.000000 0.000000 0.000000 10.000000 
R_front_hand02_01 0.000000 0.000000 0.000000 0.000000 0.000000 0.000000 10.000000 
R_front_hand03_01 0.000000 0.000000 0.000000 0.000000 0.000000 0.000000 10.000000 
R_front_hand01_02 0.000000 0.000000 0.000000 0.000000 0.000000 0.000000 10.000000 
R_front_hand02_02 0.000000 0.000000 0.000000 0.000000 0.000000 0.000000 10.000000 
R_front_hand03_02 0.000000 0.000000 0.000000 0.000000 0.000000 0.000000 10.000000 
null_rope01_connect 0.000000 0.000000 0.000000 0.000000 0.000000 0.000000 10.000000 
Rope1_Seg01 0.000000 0.000000 0.000000 0.000000 0.000000 0.000000 10.000000 
Rope1_Seg02 0.000000 0.000000 0.000000 0.000000 0.000000 0.000000 10.000000 
Rope1_Seg03 0.000000 0.000000 0.000000 0.000000 0.000000 0.000000 10.000000 
Rope1_Seg04 0.000000 0.000000 0.000000 0.000000 0.000000 0.000000 10.000000 
Rope1_Seg05 0.000000 0.000000 0.000000 0.000000 0.000000 0.000000 10.000000 
Rope1_Seg06 0.000000 0.000000 0.000000 0.000000 0.000000 0.000000 10.000000 
Rope1_Seg07 0.000000 0.000000 0.000000 0.000000 0.000000 0.000000 10.000000 
Rope1_Seg09 0.000000 0.000000 0.000000 0.000000 0.000000 0.000000 10.000000 
L_mid_hand01 0.000000 0.000000 0.000000 0.000000 0.000000 0.000000 10.000000 
L_mid_hand02 0.000000 0.000000 0.000000 0.000000 0.000000 0.000000 10.000000 
L_mid_hand03 0.000000 0.000000 0.000000 0.000000 0.000000 0.000000 10.000000 
null_rope02_connect 0.000000 0.000000 0.000000 0.000000 0.000000 0.000000 10.000000 
Rope2_Seg01 0.000000 0.000000 0.000000 0.000000 0.000000 0.000000 10.000000 
Rope2_Seg02 0.000000 0.000000 0.000000 0.000000 0.000000 0.000000 10.000000 
Rope2_Seg03 0.000000 0.000000 0.000000 0.000000 0.000000 0.000000 10.000000 
Rope2_Seg04 0.000000 0.000000 0.000000 0.000000 0.000000 0.000000 10.000000 
Rope2_Seg05 0.000000 0.000000 0.000000 0.000000 0.000000 0.000000 10.000000 
Rope2_Seg06 0.000000 0.000000 0.000000 0.000000 0.000000 0.000000 10.000000 
Rope2_Seg07 0.000000 0.000000 0.000000 0.000000 0.000000 0.000000 10.000000 
Rope2_Seg09 0.000000 0.000000 0.000000 0.000000 0.000000 0.000000 10.000000 
R_mid_hand01 0.000000 0.000000 0.000000 0.000000 0.000000 0.000000 10.000000 
R_mid_hand02 0.000000 0.000000 0.000000 0.000000 0.000000 0.000000 10.000000 
R_mid_hand03 0.000000 0.000000 0.000000 0.000000 0.000000 0.000000 10.000000 
spine02 0.000000 0.000000 0.000000 0.000000 0.000000 0.000000 10.000000 
spine03 0.000000 0.000000 0.000000 0.000000 0.000000 0.000000 10.000000 
pelvis 0.000000 0.000000 0.000000 0.000000 0.000000 0.000000 10.000000 
null_rope03_connect 0.000000 0.000000 0.000000 0.000000 0.000000 0.000000 10.000000 
null_rope04_connect 0.000000 0.000000 0.000000 0.000000 0.000000 0.000000 10.000000 
Rope3_Seg01 0.000000 0.000000 0.000000 0.000000 0.000000 0.000000 10.000000 
Rope3_Seg02 0.000000 0.000000 0.000000 0.000000 0.000000 0.000000 10.000000 
Rope3_Seg03 0.000000 0.000000 0.000000 0.000000 0.000000 0.000000 10.000000 
Rope3_Seg04 0.000000 0.000000 0.000000 0.000000 0.000000 0.000000 10.000000 
Rope3_Seg05 0.000000 0.000000 0.000000 0.000000 0.000000 0.000000 10.000000 
Rope3_Seg06 0.000000 0.000000 0.000000 0.000000 0.000000 0.000000 10.000000 
Rope3_Seg07 0.000000 0.000000 0.000000 0.000000 0.000000 0.000000 10.000000 
Rope3_Seg08 0.000000 0.000000 0.000000 0.000000 0.000000 0.000000 10.000000 
Rope3_Seg09 0.000000 0.000000 0.000000 0.000000 0.000000 0.000000 10.000000 
R_rear_hand01 0.000000 0.000000 0.000000 0.000000 0.000000 0.000000 10.000000 
R_rear_hand02 0.000000 0.000000 0.000000 0.000000 0.000000 0.000000 10.000000 
R_rear_hand03 0.000000 0.000000 0.000000 0.000000 0.000000 0.000000 10.000000 
Rope4_Seg01 0.000000 0.000000 0.000000 0.000000 0.000000 0.000000 10.000000 
Rope4_Seg02 0.000000 0.000000 0.000000 0.000000 0.000000 0.000000 10.000000 
Rope4_Seg03 0.000000 0.000000 0.000000 0.000000 0.000000 0.000000 10.000000 
Rope4_Seg04 0.000000 0.000000 0.000000 0.000000 0.000000 0.000000 10.000000 
Rope4_Seg05 0.000000 0.000000 0.000000 0.000000 0.000000 0.000000 10.000000 
Rope4_Seg06 0.000000 0.000000 0.000000 0.000000 0.000000 0.000000 10.000000 
Rope4_Seg07 0.000000 0.000000 0.000000 0.000000 0.000000 0.000000 10.000000 
Rope4_Seg08 0.000000 0.000000 0.000000 0.000000 0.000000 0.000000 10.000000 
Rope4_Seg09 0.000000 0.000000 0.000000 0.000000 0.000000 0.000000 10.000000 
L_rear_hand01 0.000000 0.000000 0.000000 0.000000 0.000000 0.000000 10.000000 
L_rear_hand02 0.000000 0.000000 0.000000 0.000000 0.000000 0.000000 10.000000 
L_rear_hand03 0.000000 0.000000 0.000000 0.000000 0.000000 0.000000 10.000000 
#Beginning of Data. Separated by tabs
#Fr	Tx	Ty	Tz	Rx	Ry	Rz	SF
[MASTER]
24 -0.000773 5205.525391 0.000000 0.001660 0.001660 0.001660 5205.525391
25 -0.000813 5465.070801 0.000000 0.001660 0.001660 0.001660 5465.070801
[root]
24 -147.746323 408.639526 1596.919800 -101.282585 0.772422 -76.386887 1654.982788
25 -155.483414 429.551544 1613.285278 -101.379532 0.352112 -76.382912 1676.716797
[chest]
24 -84.512650 -34.090519 0.000000 6.119547 -1.157672 -178.666763 91.129311
25 -84.512650 -34.090519 0.000000 4.583451 -0.635429 -178.264923 91.129311
[L_mid_tent01]
24 27.299301 22.178690 -249.918686 -22.856180 25.055973 17.386965 252.381653
25 27.299294 22.178741 -249.918716 -22.756899 30.902191 18.527287 252.381683
[R_mid_tent01]
24 23.228794 24.509907 226.238495 83.687683 -36.250668 172.721939 228.744751
25 23.228794 24.509907 226.238495 101.826500 -42.685875 152.763458 228.744751
[spine01]
24 -0.361383 -0.195265 0.000000 0.306373 0.124790 20.270124 0.410763
25 -0.361383 -0.195265 0.000000 0.283167 0.115384 20.396420 0.410763
[Bip01_Neck]
24 165.484543 71.581718 0.000119 175.896118 1.177290 24.871183 180.302734
25 165.484543 71.581718 0.000119 175.896118 1.177290 24.871183 180.302734
[L_humerus]
24 -13.983130 -135.272980 -120.471481 -3.815593 66.485138 85.707207 181.680161
25 -13.983130 -135.272980 -120.471481 -3.927141 66.727440 85.588364 181.680161
[R_humerus]
24 -13.983309 -135.273102 125.287651 79.564476 -34.064564 8.286500 184.909012
25 -13.983309 -135.273102 125.287651 78.309555 -34.905033 10.119791 184.909012
[weapon_bone]
24 235.964890 -300.705902 0.000000 0.000000 -89.951546 -128.212341 382.234833
25 235.964890 -300.705902 0.000000 0.000000 -89.951546 -128.212341 382.234833
[Bip01_Head]
24 221.442245 195.489807 -8.854866 -46.988155 6.154832 -62.157459 295.518768
25 223.256226 198.723007 -9.328157 -46.956280 6.979352 -61.368759 299.033752
[eye_left_bone]
24 -24.626970 125.451866 -64.772606 0.000000 -90.000000 -99.840431 143.318359
25 -24.626970 125.451866 -64.772606 0.000000 -90.000000 -99.840431 143.318359
[eye_right_bone]
24 -24.626970 125.451866 64.327362 0.000000 -89.960434 80.159386 143.117676
25 -24.626970 125.451866 64.327362 0.000000 -89.960434 80.159386 143.117676
[L_forearm]
24 322.776093 0.000000 -0.000119 0.000311 -0.002327 -105.234795 322.776093
25 322.776093 0.000000 -0.000119 0.000317 -0.002326 -105.508675 322.776093
[L_front_hand]
24 241.149185 -0.042021 -3.300071 -178.667953 -1.835447 -27.422350 241.171753
25 241.149185 -0.042021 -3.300071 -178.667953 -1.835447 -27.422350 241.171753
[L_weapon_bone]
24 156.183838 0.000000 0.000000 0.000014 0.000007 0.000001 156.183838
25 156.183838 0.000000 0.000000 0.000014 0.000007 0.000001 156.183838
[L_front_hand01_01]
24 86.095154 20.947098 -0.655860 -0.366594 -0.477154 75.385574 88.609184
25 86.095154 20.947098 -0.655860 -0.366594 -0.477154 75.385574 88.609184
[L_front_hand02_01]
24 86.935165 -11.437475 24.513514 154.403519 -59.888931 -61.371990 91.046425
25 86.935165 -11.437475 24.513514 154.403519 -59.888931 -61.371990 91.046425
[L_front_hand03_01]
24 86.637497 -14.123976 -20.424902 -153.913879 58.118130 -62.702892 90.126129
25 86.637497 -14.123976 -20.424902 -153.913849 58.118130 -62.702866 90.126129
[L_front_hand01_02]
24 71.020905 -0.000179 0.000030 0.000334 -0.002323 -106.379684 71.020905
25 71.020905 -0.000179 0.000030 0.000334 -0.002323 -106.379684 71.020905
[L_front_hand02_02]
24 71.020927 -0.000119 0.000060 0.000334 -0.002323 -106.379684 71.020927
25 71.020927 -0.000119 0.000060 0.000334 -0.002323 -106.379684 71.020927
[L_front_hand03_02]
24 71.020905 -0.000060 0.000060 0.000334 -0.002323 -106.379684 71.020905
25 71.020905 -0.000060 0.000060 0.000334 -0.002323 -106.379684 71.020905
[R_forearm]
24 322.776428 -0.000060 0.000030 -0.004755 -0.210977 0.797933 322.776428
25 322.776428 -0.000060 0.000030 -0.021301 -0.210340 4.419317 322.776428
[R_front_hand]
24 238.847015 -0.006795 2.210259 78.152657 3.189585 -8.358073 238.857239
25 238.847015 -0.006795 2.210259 79.484489 5.043923 -10.571099 238.857239
[R_weapon_bone]
24 155.664093 0.002503 -0.000030 0.003487 0.001180 -90.988930 155.664078
25 155.664093 0.002503 -0.000030 0.003487 0.001180 -90.988930 155.664078
[R_front_hand01_01]
24 87.624611 14.231146 22.918642 -154.633484 -59.950619 61.746037 91.683487
25 87.624611 14.231146 22.918642 -154.633499 -59.950619 61.746044 91.683487
[R_front_hand02_01]
24 89.356956 14.367283 -19.491137 154.602661 58.302856 63.744389 92.579636
25 89.356956 14.367283 -19.491137 154.602676 58.302864 63.744389 92.579636
[R_front_hand03_01]
24 87.286232 -22.307278 -0.143439 0.162155 -0.423168 -75.767921 90.091743
25 87.286232 -22.307278 -0.143439 0.162155 -0.423168 -75.767921 90.091743
[R_front_hand01_02]
24 71.020905 0.000060 0.000119 0.002323 -0.000334 106.381721 71.020905
25 71.020905 0.000060 0.000119 0.002323 -0.000334 106.381714 71.020905
[R_front_hand02_02]
24 71.020844 -0.000030 -0.000119 0.002323 -0.000334 106.381721 71.020836
25 71.020844 -0.000030 -0.000119 0.002323 -0.000334 106.381714 71.020836
[R_front_hand03_02]
24 71.020905 0.000000 0.000030 0.002323 -0.000334 106.381721 71.020905
25 71.020905 0.000000 0.000030 0.002323 -0.000334 106.381714 71.020905
[null_rope01_connect]
24 328.732483 0.000000 -0.000238 -173.761017 -49.576405 -112.887299 328.732483
25 328.732483 0.000000 -0.000238 -166.939026 -46.930428 -120.862755 328.732483
[Rope1_Seg01]
24 0.000000 0.000000 0.000000 67.873703 -10.920304 -133.077179 0.000000
25 0.000000 0.000000 0.000000 68.948769 -8.663693 -133.090576 0.000000
[Rope1_Seg02]
24 139.999863 -0.000179 0.000000 8.821424 -15.463099 2.621689 139.999863
25 139.999863 -0.000179 0.000000 9.797293 -15.256239 2.117256 139.999863
[Rope1_Seg03]
24 139.999924 0.000060 -0.000060 3.815323 -31.790138 11.441998 139.999924
25 139.999924 0.000060 -0.000060 4.491165 -34.110691 11.988983 139.999924
[Rope1_Seg04]
24 139.999924 -0.000060 -0.000119 -4.193111 -27.352919 12.998049 139.999924
25 139.999924 -0.000060 -0.000119 -5.240560 -29.639486 14.748998 139.999924
[Rope1_Seg05]
24 139.999832 0.000119 -0.000060 -9.863954 -24.422985 14.781101 139.999832
25 139.999832 0.000119 -0.000060 -10.033571 -23.788269 14.195443 139.999832
[Rope1_Seg06]
24 139.999954 0.000119 -0.000060 -34.342056 -27.714361 14.074900 139.999954
25 139.999954 0.000119 -0.000060 -30.985542 -25.664515 12.461432 139.999954
[Rope1_Seg07]
24 139.999985 0.000060 0.000000 -34.437759 -11.872889 -1.563581 139.999985
25 139.999985 0.000060 0.000000 -31.017935 -11.248454 -1.065103 139.999985
[Rope1_Seg09]
24 121.602913 0.000119 -0.000089 -89.793175 -1.359789 0.847147 121.602913
25 121.602913 0.000119 -0.000089 -89.793175 -1.359789 0.847147 121.602913
[L_mid_hand01]
24 103.859421 1.038730 8.195221 114.518898 -53.313473 -20.620918 104.187431
25 103.859421 1.038730 8.195221 114.518837 -53.313595 -20.620815 104.187431
[L_mid_hand02]
24 105.572853 -4.139662 -10.864139 -155.067673 38.166626 -52.448818 106.211075
25 105.572853 -4.139662 -10.864139 -155.067673 38.166626 -52.448818 106.211075
[L_mid_hand03]
24 104.641464 17.579376 -3.913581 -10.970130 15.317461 57.626949 106.179977
25 104.641464 17.579376 -3.913581 -10.970130 15.317461 57.626949 106.179977
[null_rope02_connect]
24 328.732849 0.000179 -0.000119 -168.625870 3.424398 69.154602 328.732849
25 328.732849 0.000179 -0.000119 -156.391327 14.328831 63.851791 328.732849
[Rope2_Seg01]
24 0.000059 0.000406 0.000105 -44.462185 4.946205 66.670479 0.000424
25 0.000062 0.000421 0.000103 -46.559460 28.039066 53.007751 0.000438
[Rope2_Seg02]
24 139.999741 -0.000060 -0.000119 -0.412722 -1.356885 -0.928266 139.999756
25 139.999741 -0.000060 -0.000119 0.010144 -9.723376 -0.391298 139.999756
[Rope2_Seg03]
24 140.000107 0.000030 0.000000 -0.437276 -1.357142 -0.942819 140.000107
25 140.000107 0.000030 0.000000 -0.836607 -11.351329 -0.466843 140.000107
[Rope2_Seg04]
24 139.999802 0.000000 -0.000060 -0.630477 -1.879965 -1.269147 139.999802
25 139.999802 0.000000 -0.000060 -2.994513 -15.951683 -0.967454 139.999802
[Rope2_Seg05]
24 139.999985 -0.000060 0.000119 -0.621065 -1.582189 -1.112577 139.999985
25 139.999985 -0.000060 0.000119 -2.783483 -8.364057 -0.910848 139.999985
[Rope2_Seg06]
24 139.999893 -0.000030 -0.000119 -0.042931 0.169792 -0.052806 139.999893
25 139.999893 -0.000030 -0.000119 0.992769 2.410692 0.551876 139.999893
[Rope2_Seg07]
24 139.999893 0.000060 -0.000060 0.360311 1.310265 0.653713 139.999893
25 139.999893 0.000060 -0.000060 1.070726 2.924389 0.597961 139.999893
[Rope2_Seg09]
24 121.338966 0.000089 -0.000060 136.879395 0.546403 -1.506368 121.338966
25 121.338966 0.000089 -0.000060 136.879395 0.546403 -1.506368 121.338966
[R_mid_hand01]
24 104.680779 11.144459 -10.335981 -33.912148 35.430534 43.502583 105.778534
25 104.680779 11.144459 -10.335981 -35.505901 33.839397 40.705864 105.778534
[R_mid_hand02]
24 104.070427 2.443552 8.231699 68.197044 -48.096607 17.113411 104.424065
25 104.070427 2.443552 8.231699 69.277916 -45.487473 15.633079 104.424065
[R_mid_hand03]
24 106.028137 -11.221827 -5.996406 -171.245392 13.223536 -53.335106 106.788818
25 106.028137 -11.221827 -5.996406 -170.607315 12.782290 -50.502613 106.788818
[spine02]
24 129.756927 0.001550 0.000119 -0.363244 -14.996370 -3.672491 129.756927
25 129.756927 0.001550 0.000119 -0.342122 -14.771862 -3.774797 129.756927
[spine03]
24 78.572746 0.090380 -5.300823 1.881269 3.764846 16.929583 78.751404
25 78.575676 0.089734 -5.272120 1.874919 3.748155 16.867300 78.752403
[pelvis]
24 169.435242 0.051022 0.000000 -0.058851 -0.312928 9.416348 169.435257
25 169.435242 0.051022 0.000000 -0.058634 -0.299311 9.757033 169.435257
[null_rope03_connect]
24 -1.257226 -2.466202 137.391083 107.052612 -64.894897 -60.875504 137.418976
25 -1.257226 -2.466202 137.391083 107.755600 -65.066902 -61.431202 137.418976
[null_rope04_connect]
24 -1.259640 -2.480268 -137.844437 107.052612 -64.894897 -60.875504 137.872513
25 -1.259640 -2.480268 -137.844437 107.755600 -65.066902 -61.431202 137.872513
[Rope3_Seg01]
24 0.000029 -0.000394 0.000000 27.729061 -15.622666 43.843277 0.000395
25 0.000027 -0.000409 0.000000 65.894600 -31.200769 33.669964 0.000410
[Rope3_Seg02]
24 139.999924 -0.000119 0.000060 -7.401088 6.795555 0.996480 139.999924
25 139.999924 -0.000119 0.000060 -21.701868 9.530614 -5.083562 139.999924
[Rope3_Seg03]
24 139.999924 -0.000119 0.000119 -5.164672 6.414535 1.814568 139.999924
25 139.999924 -0.000119 0.000119 -15.021030 10.506514 -1.302227 139.999924
[Rope3_Seg04]
24 139.999924 0.000119 0.000000 -5.722409 8.494276 2.103980 139.999924
25 139.999924 0.000119 0.000000 -11.769806 11.187000 -0.235915 139.999924
[Rope3_Seg05]
24 139.999924 -0.000238 0.000060 -1.971061 4.941064 2.595356 139.999924
25 139.999924 -0.000238 0.000060 -3.209873 6.294732 3.150455 139.999924
[Rope3_Seg06]
24 139.999893 -0.000119 -0.000060 2.395290 -1.950625 1.796471 139.999893
25 139.999893 -0.000119 -0.000060 2.151003 0.733840 4.775521 139.999893
[Rope3_Seg07]
24 139.999771 0.000060 -0.000119 3.787959 -4.181813 1.373622 139.999771
25 139.999771 0.000060 -0.000119 2.561613 -0.356441 4.501551 139.999771
[Rope3_Seg08]
24 139.999985 -0.000060 0.000000 1.761357 -1.128648 1.126971 139.999985
25 139.999985 -0.000060 0.000000 0.978273 0.979213 2.552508 139.999985
[Rope3_Seg09]
24 90.185997 -0.000179 -0.000060 131.000076 -1.360211 -0.845856 90.185997
25 90.185997 -0.000179 -0.000060 -156.743286 -1.357175 -0.848210 90.185997
[R_rear_hand01]
24 103.366196 -6.073594 -10.757982 -156.049316 6.070419 -2.795869 104.101845
25 103.366196 -6.073594 -10.757982 -177.714203 24.565960 -73.910950 104.101845
[R_rear_hand02]
24 100.509819 12.039542 -7.992327 -38.708435 1.958051 5.461186 101.543350
25 100.509819 12.039542 -7.992327 -12.874829 36.868488 72.167213 101.543350
[R_rear_hand03]
24 101.539970 5.215704 5.435467 84.307625 -2.361032 4.099037 101.819031
25 101.539970 5.215704 5.435467 71.484581 -71.816643 21.513828 101.819031
[Rope4_Seg01]
24 0.000072 -0.000716 0.000000 46.477272 -20.555998 -98.865715 0.000719
25 0.000071 -0.000752 0.000000 47.250965 -18.059263 -101.780281 0.000755
[Rope4_Seg02]
24 139.999985 0.000060 0.000119 0.870700 12.512523 10.450217 139.999985
25 139.999985 0.000060 0.000119 2.187018 21.336361 10.898124 139.999985
[Rope4_Seg03]
24 139.999924 0.000000 -0.000238 4.047470 34.595207 26.967129 139.999924
25 139.999924 0.000000 -0.000238 23.409328 47.155041 21.680986 139.999924
[Rope4_Seg04]
24 139.999985 0.000000 0.000119 -89.455536 28.336266 21.190008 139.999985
25 139.999985 0.000000 0.000119 126.157845 25.881403 6.146424 139.999985
[Rope4_Seg05]
24 139.999802 -0.000060 -0.000119 -33.136974 -31.314512 5.326242 139.999802
25 139.999802 -0.000060 -0.000119 58.417591 5.422183 -33.951870 139.999802
[Rope4_Seg06]
24 139.999924 0.000000 0.000060 5.945132 -27.068377 -17.820919 139.999924
25 139.999924 0.000000 0.000060 7.041121 -19.155518 -16.813137 139.999924
[Rope4_Seg07]
24 139.999802 0.000000 0.000000 0.194455 -9.727407 -3.956727 139.999802
25 139.999802 0.000000 0.000000 0.866295 -8.511895 -5.277047 139.999802
[Rope4_Seg08]
24 139.999924 0.000000 0.000119 -1.444592 -4.558954 -1.846666 139.999924
25 139.999924 0.000000 0.000119 -1.257892 -4.172655 -2.521399 139.999924
[Rope4_Seg09]
24 90.185791 0.000060 0.000060 -135.617828 2.228885 0.850567 90.185791
25 90.185791 0.000060 0.000060 -135.617828 2.228885 0.850567 90.185791
[L_rear_hand01]
24 101.696655 -8.392275 -7.654577 -19.915020 -33.950905 119.950104 102.329041
25 101.696655 -8.392275 -7.654577 -19.915020 -33.950905 119.950104 102.329041
[L_rear_hand02]
24 102.726799 -1.568258 5.773216 77.862221 61.878510 165.399200 102.900848
25 102.726799 -1.568258 5.773216 77.862221 61.878510 165.399200 102.900848
[L_rear_hand03]
24 104.552910 9.721220 -10.420293 -173.099182 -23.740307 -117.327896 105.519653
25 104.552910 9.721220 -10.420293 -173.099182 -23.740307 -117.327896 105.519653
